<svg xmlns="http://www.w3.org/2000/svg" viewBox="0 0 380.36 228.9"><defs><style>.cls-1{fill:#fff;}</style></defs><g id="Layer_2" data-name="Layer 2"><g id="Layer_1-2" data-name="Layer 1"><path class="cls-1" d="M376.52,110.82c-3.61-3.79-7.83-7-11.78-10.46-3.73-3.26-7.53-6.45-11.2-9.78a12.76,12.76,0,0,1-4.16-10.94,76.86,76.86,0,0,0-1.72-22C345.12,46.41,339.6,37,329.92,30.39a17.05,17.05,0,0,0-3.1-1.83c-3.37-1.4-6.51.51-6.69,4.17a45.6,45.6,0,0,0,.28,7.2,92.69,92.69,0,0,1-1.13,26.5c-3.36,18.92-13.17,33-31.19,40.67a80.33,80.33,0,0,1-12.88,4c-17.45,4.15-29.34,14-33.31,32.08-1.6,7.27-1.32,14.65-.89,22a42.39,42.39,0,0,1-6.22,25c-8.1,13.4-20.19,21.81-34.85,26.31-27.14,8.33-52.92,4.16-77.12-10.14-6.57-3.89-12.64-8.67-18.73-13.32-8.72-6.67-17.16-13.7-25.87-20.36a49.81,49.81,0,0,0-18.47-9.16,52,52,0,0,0-25,.47c-2.69.67-4.76.46-6.88-1.65-2.77-2.76-6.41-3.71-10.35-3.63-8,.16-14.58,6.16-15,13.88-.51,8.73,4.89,15.71,13,16.73,8.62,1.09,15.74-3.78,17.48-11.94.31-1.45.63-2.88,1-4.39,11.6-3.52,22.8-3.76,33.22,2.7,6.12,3.78,11.78,8.3,17.52,12.66,8.74,6.64,17.25,13.58,26.07,20.11,20,14.77,42.54,21.21,67.26,20.44,13.9-.43,27.12-3.71,39.17-10.71,21.77-12.64,34.09-30.79,32.2-56.94a65.14,65.14,0,0,1,.1-11.26c1.26-12.74,6.92-22.63,19.19-27.73a81,81,0,0,1,11.17-3.41c22.31-5.68,38.07-18.58,45.35-40.88,3.4-10.42,4.15-21.18,4-32.06,0-1.24.15-2.48.23-3.72l1.27-.67c.66,1,1.26,2,2,2.91a38.83,38.83,0,0,1,6.53,13.75c1.94,7.2,2.19,14.56,1.8,21.94A19.43,19.43,0,0,0,347,95.94c4.69,4.42,9.73,8.49,14.59,12.73,2.83,2.46,5.76,4.84,8.39,7.51,2.43,2.47,2.32,3.77-.33,6s-5.54,4.12-8.31,6.19c-4.1,3-4.55,6.14-1.66,10.42,1.31,1.94,2.48,4,3.91,6.27-7.09,3.94-4.74,8.82-1.86,13.34-4.35,4.92-4.36,4.92-3.57,11.29a27.33,27.33,0,0,1,.49,3.57,38.6,38.6,0,0,1-.42,7.14c-.88,4.49-3.19,6.59-7.81,6.55-4,0-8-1-12.05-1.24-4.76-.24-9.63-.66-14.29,0-7.95,1.19-14.17,5.84-18.84,12.19a104.78,104.78,0,0,0-8,13.54,3.9,3.9,0,0,0,2.11,5.25,4,4,0,0,0,5.13-1.58c.61-.84,1-1.86,1.51-2.76,1.61-2.71,3.06-5.55,4.92-8.08,6.85-9.31,15.87-12.71,27.3-10.14a54.08,54.08,0,0,0,12.95,1.22c8.46-.16,14.48-5.74,15.46-14.11a61.54,61.54,0,0,0,.07-10.34c-.14-2.61-.07-4.9,1.73-7.12a8.22,8.22,0,0,0,1.25-8.12c-.37-1.12-.61-2.27-.93-3.5,6-6.14,1.94-11.69-1.2-17.56,2.86-2.24,5.42-4.08,7.79-6.13C381.51,123.17,382.08,116.68,376.52,110.82ZM17.67,181.12a7.09,7.09,0,0,1-6.79-7.48A6.91,6.91,0,0,1,18,167a7.2,7.2,0,0,1,6.91,7A7.37,7.37,0,0,1,17.67,181.12Z"/><path class="cls-1" d="M302.29,23.72a12.41,12.41,0,0,0-.61-2.63,4,4,0,0,0-4.46-2.94,3.84,3.84,0,0,0-3.4,4.08c0,2.1.26,4.2.45,6.3,1.57,16.84-4.4,30.31-18.14,40.23a80.69,80.69,0,0,1-27.28,12.52c-9,2.35-17.9,5.17-26,9.88-12.2,7.08-21,17-24.76,30.78a88.37,88.37,0,0,0-2.34,13.27c-.91,7.88-3,15.32-7.4,22-3.79,5.77-8.93,9.69-15.79,11.1-5.87,1.19-11.66.55-17.4-.92-13.8-3.54-25.71-10.58-36.72-19.47C110.23,141.31,101.83,135,93.2,129a69.3,69.3,0,0,0-26.28-11.39A7.21,7.21,0,0,1,61,113a15.36,15.36,0,0,0-24-4.93c-4.78,4.27-6.45,9.66-4.71,15.91,1.57,5.7,5.35,9.49,11,10.77,6.31,1.42,11.94-.18,16.12-5.49.92-1.17,1.71-2.45,2.63-3.77a12.21,12.21,0,0,1,1.77,0c8.43,1.47,16,5.17,23.21,9.51,9.31,5.59,17.72,12.39,26,19.34,13.84,11.6,29.3,19.84,47.38,22.59,15.26,2.32,28.47-3.92,36.25-17.23,4.57-7.81,6.74-16.33,7.5-25.27,1.27-15.09,8.12-26.79,21-34.87,7.6-4.76,15.94-7.61,24.57-9.83,11.89-3.06,23-7.82,32.86-15.32C299.54,61.55,304.83,44.14,302.29,23.72Zm-255,103.14a7.26,7.26,0,0,1-7.24-7.12,7.35,7.35,0,0,1,6.91-7,7.08,7.08,0,0,1,.33,14.15Z"/><path class="cls-1" d="M273.56,12.8c-2.16-.38-4.19,1.15-4.79,3.72-.37,1.61-.47,3.28-.92,4.87a70.15,70.15,0,0,1-3,9.41,24,24,0,0,1-18.26,14.54,47.42,47.42,0,0,1-16.59.18c-9.26-1.42-18.53-2-27.82-.32-13.93,2.56-24.29,10-30.55,22.81-1.31,2.68-2,5.65-3.27,8.38-2.24,4.89-4.3,9.93-7.12,14.48A19.16,19.16,0,0,1,146.85,100a43,43,0,0,1-12.09-.38C125.32,98,116.85,93.72,108.5,89.2c-7.4-4-14.76-8.12-22.32-11.79-17-8.24-34.5-14.87-53.77-15.29-1.14,0-2.36-1-3.35-1.76a20,20,0,0,1-2-2.45,15.58,15.58,0,0,0-27,11.46c.6,7.07,6,13.13,12.5,14.15,7.93,1.23,14.53-2.35,17.52-9.52.4-1,.75-1.94,1.27-3.29,1.43,0,2.47,0,3.51,0,8.81.21,17.24,2.4,25.53,5.15,15.48,5.13,29.85,12.66,44,20.66a111.29,111.29,0,0,0,22.64,10c7,2.1,14.12,3.14,21.36,1.9,11.7-2,19.18-9.46,24.15-19.71A109.86,109.86,0,0,0,177,76.93c4.55-13,13.3-21.15,27.1-23.5,6.89-1.17,13.76-.85,20.67-.16,5.52.56,11.09,1.4,16.6,1.18a36.58,36.58,0,0,0,35.65-37A4.52,4.52,0,0,0,273.56,12.8ZM15.72,75.33a7.18,7.18,0,0,1-7.23-7.09,7.4,7.4,0,0,1,7-7,7.07,7.07,0,0,1,7.11,7.17A6.89,6.89,0,0,1,15.72,75.33Z"/><path class="cls-1" d="M249.55,9.55a8.1,8.1,0,0,0-2.44-1.13,79.07,79.07,0,0,0-33.88-2.48c-10.66,1.5-20.64,5.22-30.27,9.89-9.06,4.38-18,9-27,13.46-12.44,6.2-25.35,10.84-39.29,12.38C95.42,44,76.59,38,59.35,25.91c-3.81-2.67-6.55-5.08-5.93-10.77C54.27,7.48,47.79,1,40.22.1c-7.75-.87-15.07,4-16.88,11.2-2,8,2,16,9.42,18.74A14.07,14.07,0,0,0,45,29.42c2.44-1.37,4.09-.84,6,.75a77.94,77.94,0,0,0,7,5C73,45,89.41,50.6,107.58,50.69c4.34-.34,8.7-.48,13-1,14.16-1.87,27.31-6.84,40-13.22,10.33-5.18,20.66-10.38,31.16-15.23,16.91-7.81,34.41-10.28,52.6-4.79a10.49,10.49,0,0,0,3.11.39,3.5,3.5,0,0,0,3.58-2.85A3.85,3.85,0,0,0,249.55,9.55Zm-211.09,13a7.35,7.35,0,0,1-7.32-7.08,7.2,7.2,0,0,1,7.37-7,6.91,6.91,0,0,1,6.74,7A7,7,0,0,1,38.46,22.58Z"/></g></g></svg>