<svg width="45" height="43" viewBox="0 0 45 43" fill="none" xmlns="http://www.w3.org/2000/svg">
<path d="M44.9015 7.39987C44.4091 5.68467 43.2275 4.2145 42.5875 3.52842C41.0612 1.91123 39.7811 1.22514 38.9934 0.980116C38.8457 0.93111 38.698 0.882104 38.5011 0.882104C38.1072 0.882104 37.7133 1.02912 37.4671 1.27415L34.3654 4.11649C33.3807 5.0476 32.1991 5.68467 30.919 6.12572C29.442 6.61578 28.1127 7.39987 26.931 8.478L22.5984 12.4475C22.5 12.3005 22.4015 12.2024 22.303 12.0554L22.2538 11.3203C22.2046 10.8793 21.9092 10.4872 21.5645 10.2422C21.9092 10.1932 22.2046 10.1442 22.5492 10.0952C23.6816 9.89917 24.4693 8.82104 24.3216 7.6449C24.2232 6.90982 23.6324 6.41976 22.8938 6.37075C20.5306 6.32175 17.675 5.0966 17.675 5.0966C16.2472 4.50853 12.8008 3.96947 11.3731 3.72444C11.2746 3.72444 11.1269 3.67543 11.0776 3.57742L7.58202 0.392046C7.28662 0.147017 6.94198 0 6.54811 0C6.35117 0 6.15423 0.0490058 6.00653 0.0980116C4.28334 0.735087 2.95402 2.05824 2.26474 2.74432C0.738479 4.36151 0.196904 5.68467 -3.27379e-05 6.51777C-0.147735 7.05683 0.0492014 7.6449 0.443074 7.98794L3.54482 10.8303C4.52951 11.7614 5.31725 12.8395 5.85883 14.0647C6.49887 15.4858 7.38509 16.76 8.51747 17.8381L13.047 21.9546C12.8501 21.9056 12.6531 21.8566 12.4562 21.8566C12.2593 21.8566 12.0623 21.8566 11.9146 21.9056L11.8654 21.8566C11.6685 21.7096 11.4223 21.6115 11.1269 21.6115C10.7822 21.6115 10.4376 21.7586 10.2407 22.0036C9.9945 22.2486 9.89603 22.5917 9.94526 22.9347C9.9945 23.2777 10.093 23.6698 10.2899 24.1108C10.3391 24.2579 10.3884 24.4049 10.4868 24.5029C10.6838 24.8459 10.8807 25.189 11.1269 25.532C11.9146 27.0022 12.6039 28.9624 12.6039 29.0114C13.1455 30.6286 15.2133 33.863 16.0995 35.1862C16.198 35.3332 16.2472 35.4802 16.2472 35.6272V39.8907C16.2472 40.4788 16.5919 41.0178 17.0842 41.2629C18.9551 42.194 21.2199 42.341 22.1061 42.341C24.814 42.341 26.291 41.6549 26.9803 41.2629C27.4234 40.9688 27.7188 40.4788 27.7188 39.9397V36.2153C27.7188 34.6961 28.0142 33.2259 28.6542 31.8538C29.3435 30.2856 29.7374 28.6194 29.7374 26.8552V23.6698L33.3807 20.3374C33.2822 21.2685 33.3315 22.1506 33.3807 22.8367C33.4792 23.9638 34.4146 24.7969 35.547 24.7969C35.5962 24.7969 35.6455 24.7969 35.6455 24.7969C36.384 24.7479 36.9256 24.2089 37.024 23.5228C37.2702 21.1705 38.7472 18.4752 38.7472 18.4262C39.4857 17.103 40.372 13.7706 40.7166 12.3495C40.7658 12.2514 40.8151 12.1534 40.9135 12.0554L44.4091 8.87005C44.9015 8.57601 45.0984 7.98794 44.9015 7.39987ZM43.966 8.429L42.1936 10.0462C41.8982 9.26209 41.5043 8.57601 41.1105 7.93894L43.3752 5.88069C43.7199 6.41976 44.0153 7.05683 44.163 7.6449C44.2614 7.88993 44.163 8.23297 43.966 8.429ZM35.6947 24.1108C35.6455 24.1108 35.6455 24.1108 35.5962 24.1108C34.8577 24.1108 34.2669 23.5718 34.1685 22.8367C34.07 21.8566 34.0208 20.5334 34.3654 19.3573C34.4146 19.1123 34.2177 18.9162 34.0207 18.9162C33.9223 18.9162 33.873 18.9652 33.7746 19.0142C32.6914 19.9944 31.1159 21.4645 29.6881 22.7387C29.5404 22.8367 29.442 22.9837 29.2943 23.0817C29.1466 23.1797 29.0481 23.3268 28.9004 23.4248C28.3096 23.9638 27.7188 24.5029 27.3249 24.8949C27.0787 25.091 26.8326 25.189 26.5372 25.189C26.2418 25.189 25.8971 25.042 25.6509 24.7969V24.7479C25.2078 24.2579 25.2571 23.5228 25.7002 23.0817L25.7494 23.0327L26.291 22.5427L28.9496 20.1414L29.3435 19.7983L29.7374 19.4553L30.6236 18.6222C30.7713 18.4752 30.7713 18.2792 30.6236 18.1321C30.5744 18.0341 30.4759 18.0341 30.3774 18.0341C30.279 18.0341 30.2297 18.0831 30.1313 18.1321L29.6881 18.5242L29.2943 18.8672L28.9004 19.2103L26.2418 21.6606L25.9464 22.0526L25.5525 22.3956L24.3709 23.4738C24.1247 23.6698 23.8785 23.7678 23.5831 23.7678C23.2877 23.7678 22.9431 23.6208 22.6969 23.3758H22.6477C22.4507 23.1797 22.3523 22.9347 22.3523 22.7387C22.303 22.4446 22.4015 22.1506 22.5492 21.9056C22.5984 21.8566 22.6477 21.7586 22.6969 21.7096L22.8446 21.5625L22.8938 21.5135L23.3862 21.0725L24.0755 20.4354L24.5678 19.9944L24.9124 19.6513L25.5032 19.1123L25.8971 18.7692L26.291 18.4262L28.1127 16.76L28.4081 16.4659L28.5065 16.3679C28.5558 16.3189 28.605 16.2209 28.605 16.1229C28.605 16.0249 28.5558 15.9269 28.5065 15.8779C28.4573 15.8289 28.3588 15.7799 28.2604 15.7799C28.1619 15.7799 28.1127 15.8289 28.0142 15.8779L28.0634 15.9269L27.6695 16.2699L27.128 16.76L26.4879 17.348L25.9464 17.8381L25.8971 17.8871L25.6509 18.1321L25.5525 18.2302L25.3063 18.4752L24.7155 19.0142L24.4201 19.2593L24.1247 19.5043L23.14 20.3864C23.0415 20.4844 22.9431 20.5334 22.8446 20.5824C22.6969 20.6804 22.5 20.6804 22.3523 20.6804C22.2538 20.6804 22.1553 20.6804 22.1061 20.6314C22.0569 20.6314 22.0076 20.5824 21.9584 20.5824C21.8107 20.5334 21.663 20.4354 21.5153 20.2884L21.466 20.2394C21.3676 20.1414 21.3183 20.0924 21.2691 19.9944C21.0229 19.5533 21.1214 18.9652 21.5153 18.5732L22.1061 18.0341L22.4507 17.7401L22.8938 17.348L22.9431 17.299L24.7155 15.6819L25.0109 15.4368L25.3063 15.1918L25.6017 14.9468L25.9464 14.6037L26.291 14.3097L26.7833 13.8686C26.931 13.7216 26.931 13.5256 26.7833 13.3786C26.7341 13.2806 26.6356 13.2806 26.5372 13.2806C26.4387 13.2806 26.3895 13.3296 26.291 13.3786L25.9464 13.6726L25.6509 13.9176L25.3555 14.1627L24.7647 14.7017L24.4693 14.9468L24.1739 15.1918L23.0415 16.2209C22.9923 16.2699 22.8938 16.3189 22.8446 16.3679C22.6477 16.4659 22.4507 16.5149 22.2538 16.5149C22.2046 16.5149 22.1553 16.5149 22.1061 16.5149C22.1061 16.5149 22.1061 16.5149 22.0569 16.5149C21.8107 16.4659 21.5645 16.3679 21.3676 16.1719C21.2199 16.0249 21.1706 15.8779 21.1214 15.6819C21.0229 15.2898 21.1214 14.7997 21.466 14.5057L22.1061 13.9176L22.4507 13.6236L22.5 13.5746L22.7461 13.3786L22.8938 13.2806L23.0415 13.1335L27.4726 9.06607C28.5558 8.08595 29.7866 7.35087 31.1652 6.90982C32.5437 6.46876 33.8238 5.73368 34.8577 4.75356L35.7932 3.87146C36.6302 4.31251 39.9288 6.32175 41.6028 10.5852L40.4704 11.6144C40.2735 11.8104 40.1258 12.0554 40.0765 12.3005C39.7811 13.4766 38.9442 16.907 38.2057 18.1811C38.2057 18.1811 36.6794 21.0235 36.384 23.5718C36.3348 23.8658 36.0393 24.1108 35.6947 24.1108ZM28.9989 26.9532C28.9989 28.5704 28.6542 30.1386 28.0142 31.6087C27.3741 33.0789 27.0295 34.6471 27.0295 36.2643V36.9504C26.7833 37.0484 25.6509 37.5874 23.7801 37.7835C23.5831 37.0484 22.8938 36.5583 22.1553 36.5583C21.3676 36.5583 20.7275 37.0484 20.5306 37.7835C19.4967 37.6364 18.3643 37.3914 17.1334 36.9994V35.6762C17.1334 35.3822 17.035 35.0881 16.8873 34.8431C16.1488 33.716 13.9825 30.4326 13.4901 28.8644C13.4901 28.8644 13.047 27.4922 12.407 26.1201C13.2439 25.777 13.7363 25.385 13.884 24.9439C13.9825 24.6989 13.9332 24.4049 13.7855 24.1599C13.4409 23.5718 13.0962 23.0817 12.7516 22.6897C13.047 22.7387 13.3424 22.8367 13.6378 23.0327C14.2286 23.4738 14.8194 24.0618 15.3118 24.7969C15.4103 24.9439 15.5087 24.9929 15.6564 24.9929C15.8534 24.9929 16.0503 24.8459 16.0503 24.6009V23.8168V23.4248V23.0327V20.2884V19.3083V16.0249V15.4368V14.8978C16.0503 14.8978 16.0503 14.8978 16.0503 14.8488C16.0995 14.9468 16.1488 15.0448 16.2472 15.1428C16.4934 15.3878 16.838 15.5838 17.2319 15.5838H17.4781C17.872 15.5838 18.2166 15.4368 18.4628 15.1428C18.5612 14.9958 18.6597 14.8488 18.7089 14.7017C18.7089 14.7507 18.7089 14.7997 18.7089 14.8488V17.4951V18.4262V21.7096V22.2486C18.7089 22.4446 18.9059 22.6407 19.1028 22.6407H19.152C19.2997 22.6407 19.3982 22.5427 19.4474 22.3956C19.4474 22.3466 19.4967 22.2976 19.4967 22.2486V19.1613V18.2302V14.9468V14.0157V13.4276C19.4967 13.2806 19.4967 13.1826 19.5459 13.0355C19.5952 13.3296 19.6936 13.5746 19.8906 13.7706C20.1367 14.0157 20.4321 14.1627 20.7275 14.1627C20.5798 14.3587 20.4814 14.6037 20.4321 14.8488C20.3829 15.1918 20.3829 15.5348 20.4814 15.8289C20.5798 16.0739 20.6783 16.3189 20.8752 16.564C21.1706 16.858 21.5153 17.054 21.9092 17.152L21.0722 17.9361C20.7275 18.2302 20.5306 18.6712 20.4814 19.1123C20.4321 19.4553 20.4814 19.8473 20.6291 20.1904C20.7275 20.3864 20.826 20.5334 20.9737 20.6804L21.0229 20.7294C21.1214 20.8275 21.1706 20.8765 21.2691 20.9255C21.4168 21.0235 21.5645 21.1215 21.7122 21.1705C21.8107 21.2195 21.9584 21.2685 22.0569 21.2685C21.8107 21.5625 21.7122 21.9546 21.663 22.3466C21.663 22.3956 21.663 22.3956 21.663 22.4446C21.663 22.9347 21.8599 23.3758 22.1553 23.7188L22.2046 23.7678C22.5492 24.1599 23.0908 24.4049 23.6324 24.4049C24.0262 24.4049 24.3709 24.3069 24.7155 24.0618C24.7647 24.4539 24.9124 24.8459 25.2078 25.14V25.189C25.5525 25.581 26.0941 25.826 26.6356 25.826C27.128 25.826 27.5711 25.63 27.965 25.336L29.0481 24.3559V26.9532H28.9989ZM26.9803 40.0377C26.9803 40.2828 26.8326 40.5278 26.6356 40.6748C26.0448 41.0178 24.6663 41.6059 22.1553 41.6059C20.7275 41.6059 18.9059 41.3609 17.4781 40.6258C17.2319 40.4788 17.035 40.2337 17.035 39.9397V37.8325C18.2658 38.2245 19.349 38.4695 20.3829 38.6166C20.5306 39.4497 21.2199 40.0377 22.0569 40.0377C22.8938 40.0377 23.5831 39.4497 23.7308 38.6166C25.2571 38.4695 26.3402 38.0775 26.931 37.8325V40.0377H26.9803ZM11.8162 22.8367C12.1608 23.1797 12.6039 23.7188 13.0962 24.5519C13.2932 24.9439 12.0131 25.434 12.0131 25.434C11.9639 25.385 11.9146 25.287 11.8654 25.238C11.6192 24.8949 11.3731 24.5519 11.2253 24.2579C11.1761 24.1599 11.1269 24.0618 11.0776 23.9638C10.9299 23.6698 10.8807 23.4248 10.8315 23.1797C10.8315 23.0817 10.7822 22.9837 10.7822 22.8857C10.733 22.5917 10.9792 22.3956 11.2253 22.3956C11.3238 22.3956 11.4223 22.4446 11.4715 22.4937C11.4715 22.4937 11.5208 22.4937 11.5208 22.5427C11.57 22.6407 11.6685 22.7387 11.8162 22.8367ZM4.13563 10.2912L2.90478 9.16408C3.39712 8.08595 5.12032 4.85157 9.15752 2.84234L10.5853 4.16549C10.7822 4.36151 11.0284 4.45953 11.3238 4.50853C12.5054 4.70456 16.0011 5.24362 17.3796 5.88069C17.3796 5.88069 20.3337 7.15484 22.8938 7.25286C23.2385 7.25286 23.5339 7.49788 23.5831 7.84093C23.6816 8.57601 23.1892 9.3111 22.4507 9.40911C21.8107 9.50712 21.0229 9.60513 20.2352 9.60513C19.7921 9.60513 19.349 9.55613 18.9551 9.50712H18.9059C18.6105 9.50712 18.4135 9.89917 18.6597 10.0952C18.9551 10.3892 19.349 10.7323 19.7429 11.0753C19.6936 11.1733 19.6936 11.2713 19.6936 11.3693L19.6444 11.8594C19.5459 11.9084 19.4474 12.0064 19.349 12.1044C19.0043 12.4475 18.8074 12.8885 18.7582 13.3786L18.7089 12.6925C18.6597 12.0064 18.0689 11.4674 17.3796 11.4674C16.6903 11.4674 16.0995 12.0064 16.0503 12.6925L16.0011 13.4276C15.6072 13.8196 15.3118 14.3587 15.3118 14.9468V18.6222L14.1302 17.5441C14.0809 17.4951 13.9825 17.4461 13.884 17.4461C13.7855 17.4461 13.6871 17.4951 13.6378 17.5441C13.4901 17.6911 13.5394 17.8871 13.6378 18.0341L15.2625 19.5533V22.7387L15.2133 22.6897L9.10828 17.299C8.02513 16.3189 7.18815 15.1428 6.59734 13.8196C6.05577 12.4475 5.21878 11.2713 4.13563 10.2912ZM21.466 11.7124V12.0064V12.3005V12.4965L21.5153 12.8885V12.9865C21.5645 13.3296 21.2691 13.6236 20.9245 13.6236H20.6783C20.3337 13.6236 20.0875 13.3296 20.0875 13.0355L20.1367 12.3985L20.186 12.0064V11.8104V11.6144V11.5164C20.186 11.4674 20.186 11.3693 20.2352 11.3203C20.2844 11.2223 20.3829 11.1243 20.4814 11.0263C20.5798 10.9773 20.6291 10.9773 20.7275 10.9773C21.0229 10.9773 21.2691 11.2223 21.3183 11.5164V11.6634L21.466 11.7124ZM17.9212 14.2607C17.9704 14.6037 17.675 14.8978 17.3304 14.8978H17.0842C16.7396 14.8978 16.4934 14.6037 16.4934 14.3097L16.5426 13.8686L16.5919 13.4276L16.6411 12.9865V12.7905C16.6411 12.4965 16.8873 12.2514 17.2319 12.2514C17.5273 12.2514 17.7735 12.4965 17.8227 12.7905V12.9865L17.872 13.3786L17.9212 13.8196V14.2607ZM20.0383 10.4382L19.989 10.3892C20.0383 10.3892 20.0875 10.3892 20.1367 10.3892C20.0875 10.3892 20.0875 10.3892 20.0383 10.4382ZM38.5011 1.6662C38.5995 1.6662 38.6488 1.6662 38.7472 1.7152C39.1903 1.86222 39.9288 2.20526 40.8151 2.94035L38.5995 4.94958C37.7133 4.11649 36.8763 3.57742 36.384 3.33239L37.9595 1.91123C38.1072 1.7152 38.3041 1.6662 38.5011 1.6662ZM41.9967 4.01847C42.2921 4.36151 42.6367 4.75356 42.9321 5.19461L40.6674 7.25286C40.175 6.56677 39.6827 5.9297 39.1411 5.43964L41.4059 3.4304C41.6028 3.57742 41.7997 3.82245 41.9967 4.01847Z" fill="#440659"/>
<path d="M26.6849 23.0817C26.488 23.0327 26.291 23.1797 26.2418 23.3758C26.1926 23.5718 26.291 23.7678 26.5372 23.8168C26.5864 23.8168 26.8326 23.9148 26.8818 24.2089C26.9311 24.4049 27.0788 24.5519 27.2757 24.5519H27.325C27.5219 24.5029 27.6696 24.3069 27.6696 24.1109C27.5219 23.4248 26.9803 23.1307 26.6849 23.0817Z" fill="#440659"/>
<path d="M23.5339 21.8566C23.4846 21.8566 23.4354 21.8076 23.3862 21.8076C23.2385 21.7586 23.0908 21.8076 22.9923 21.9056C22.9431 21.9546 22.8938 22.0036 22.8938 22.0526C22.8446 22.2486 22.9923 22.4447 23.1892 22.4937C23.1892 22.4937 23.4846 22.5917 23.5339 22.8857C23.5831 23.0817 23.7308 23.2288 23.9277 23.2288H23.977C24.1739 23.1797 24.3216 22.9837 24.3216 22.7877C24.2231 22.2976 23.8293 22.0036 23.5339 21.8566Z" fill="#440659"/>
<path d="M22.1553 18.7692C22.1553 18.7202 22.1061 18.7692 22.1553 18.7692C21.9091 18.7202 21.7614 18.8672 21.7122 19.0633C21.6629 19.2593 21.8106 19.4553 22.0076 19.5043C22.0076 19.5043 22.0568 19.5043 22.1553 19.5533C22.2538 19.6023 22.3522 19.7003 22.3522 19.8473C22.4015 20.0434 22.5492 20.1904 22.7461 20.1904H22.7953C22.8446 20.1904 22.8938 20.1414 22.943 20.1414C23.0907 20.0434 23.14 19.8963 23.14 19.7493C23.0907 19.5533 23.0415 19.4063 22.943 19.2593C22.6476 18.9652 22.3522 18.8182 22.1553 18.7692Z" fill="#440659"/>
<path d="M22.4999 14.6527C22.3522 14.5547 22.2538 14.5057 22.1553 14.5057H22.1061C21.9091 14.5057 21.7614 14.6037 21.7122 14.7997C21.6629 14.9958 21.8106 15.1918 22.0076 15.2408C22.0076 15.2408 22.0568 15.2408 22.1061 15.2898C22.2045 15.3388 22.303 15.4368 22.3522 15.6328C22.4015 15.8289 22.5492 15.9759 22.7461 15.9759H22.7953C22.8446 15.9759 22.8446 15.9759 22.8938 15.9269C23.0415 15.8779 23.14 15.6818 23.14 15.5348C23.0907 15.3388 23.0415 15.1428 22.8938 14.9958C22.7461 14.8487 22.6476 14.7507 22.4999 14.6527Z" fill="#440659"/>
</svg>
