<svg width="45" height="43" viewBox="0 0 45 43" fill="none" xmlns="http://www.w3.org/2000/svg">
<path d="M26.7297 36.5414V36.1548V35.7681H25.8287C25.4783 35.7681 25.178 35.8164 24.8276 35.9131L24.7275 35.9614L23.6763 36.2514C23.4761 36.2998 23.3259 36.3481 23.1257 36.3481C22.9755 36.3481 22.8253 36.3481 22.6752 36.2998L18.9711 35.5747C18.7708 35.5264 18.6207 35.3331 18.6207 35.1397C18.6207 34.898 18.8209 34.7047 19.0712 34.7047H19.822H20.8231H21.0233C21.7742 34.7047 22.4749 34.608 23.1757 34.4147C23.376 34.3664 23.5261 34.173 23.4761 33.9313C23.426 33.738 23.2258 33.593 22.9755 33.6413C22.525 33.7863 22.0244 33.8347 21.5239 33.883V33.8347C21.5239 33.593 21.6741 33.3997 21.9243 33.3513L23.426 32.9163C23.6763 32.8196 23.9766 32.7713 24.2269 32.7713C24.3771 32.7713 24.5272 32.723 24.6774 32.723C24.9277 32.723 25.1279 32.723 25.3782 32.7713L26.6796 32.9646V32.578V32.3846C26.6796 32.3363 26.6796 32.2879 26.7297 32.2396C26.7797 32.1429 26.8798 32.0463 27.03 31.9979L32.1357 31.4662V21.2675C31.7853 21.1708 31.485 21.0258 31.1846 20.7842L28.3815 18.0774H27.881C25.8287 18.0774 23.8265 18.8508 22.3748 20.2525L17.8698 24.651C17.1691 25.2793 16.2681 25.666 15.317 25.7627L9.1101 26.101V26.5844L7.90877 26.3911C7.65849 26.3427 7.35815 26.3427 7.10788 26.3427C6.60732 26.3427 6.10676 26.3911 5.60621 26.5361L4.10454 26.9711C3.55393 27.1161 3.15348 27.6478 3.15348 28.1795V28.2278H2.10232H1.40154C0.700758 28.2278 0.150146 28.7595 0.150146 29.4362C0.150146 30.0162 0.550591 30.4995 1.15126 30.5962L4.85537 31.3212C5.10565 31.4179 5.30587 31.4179 5.5061 31.4179C5.75637 31.4179 6.00665 31.3696 6.30699 31.3212L7.45827 30.9829C7.70854 30.9346 7.95882 30.8862 8.25916 30.8862H9.16016V31.6596H16.0178C17.7197 31.6596 19.4216 31.2729 21.0233 30.5962L23.6262 29.4362C23.6262 30.4995 23.7764 31.4179 24.0267 32.0946C23.7764 32.1429 23.5261 32.1913 23.2758 32.2396L21.7742 32.6746C21.2236 32.8196 20.8231 33.3513 20.8231 33.883V33.9313H19.822H19.0211C18.3203 33.9313 17.7697 34.463 17.7697 35.1397C17.7697 35.7197 18.1702 36.2031 18.7708 36.2998L22.475 37.0248C22.6752 37.0731 22.8754 37.0731 23.1257 37.0731C23.376 37.0731 23.6262 37.0248 23.9266 36.9765L24.5773 36.7831L23.6262 41.2783C23.5261 41.7617 23.8765 42.1967 24.3771 42.1967H32.2358V36.9281H27.1301C26.8798 36.9281 26.7297 36.7831 26.7297 36.5414ZM5.5061 30.6929C5.35593 30.6929 5.20576 30.6929 5.0556 30.6446L1.35148 29.9195C1.15126 29.8712 1.00109 29.6778 1.00109 29.4845C1.00109 29.2428 1.20131 29.0495 1.45159 29.0495H2.10232H3.20354H3.50387C4.25471 29.0495 4.95549 28.9528 5.65626 28.7595C5.85649 28.7111 6.00665 28.5178 5.9566 28.2761C5.90654 28.0828 5.70632 27.9378 5.45604 27.9861C4.95548 28.1311 4.45493 28.1795 3.95437 28.2278V28.1795C3.95437 27.9378 4.10454 27.7444 4.35482 27.6961L5.85649 27.2611C6.25693 27.1644 6.70743 27.0677 7.10788 27.0677C7.35815 27.0677 7.55838 27.0677 7.80866 27.1161L9.1101 27.3094V30.1129H8.2091C7.85871 30.1129 7.55838 30.1612 7.20799 30.2579L6.05671 30.5962C5.90654 30.6446 5.70632 30.6929 5.5061 30.6929Z" stroke="#440659" stroke-width="0.75" stroke-miterlimit="10"/>
<path d="M42.5973 32.6746V32.5779L39.3436 35.7197C38.5427 36.4931 37.4415 36.9281 36.2902 36.9281H32.9365V42.1967H42.4471C42.8976 42.1967 43.248 41.81 43.248 41.375L42.5973 34.173C42.5973 33.6897 42.5973 33.2063 42.5973 32.6746Z" stroke="#440659" stroke-width="0.75" stroke-miterlimit="10"/>
<path d="M22.3749 9.18371C23.326 9.18371 24.227 8.99037 25.0279 8.70036C24.4272 9.13537 23.8265 9.37705 23.4761 9.37705C22.8254 9.37705 22.3249 9.8604 22.3249 10.4888C22.3249 11.1171 22.8254 11.6005 23.4761 11.6005C24.0267 11.6005 24.6775 11.4555 25.3282 11.1171C24.5774 11.7938 23.6764 12.1805 22.7253 12.1805C22.0746 12.1805 21.574 12.6638 21.574 13.2922C21.574 13.9206 22.0746 14.4039 22.7253 14.4039C23.8265 14.4039 24.8276 14.1139 25.7286 13.5822C25.2781 14.0172 24.7776 14.2589 24.1769 14.5006C23.5762 14.6939 23.2759 15.3706 23.4761 15.9506C23.6764 16.3857 24.0768 16.6757 24.5774 16.6757C24.7275 16.6757 24.8276 16.6757 24.9778 16.6273C26.029 16.2407 26.93 15.7573 27.6308 14.8873C28.8321 15.9023 30.4339 16.4823 32.1858 16.4823C34.8888 16.4823 37.2414 14.9839 38.3927 12.8572C38.5429 13.6789 38.643 14.5973 38.643 15.4673C38.643 16.0956 39.1435 16.579 39.7943 16.579C40.445 16.579 40.9455 16.0956 40.9455 15.4673C40.9455 13.9206 40.6953 12.3255 40.3949 11.0204C40.8454 11.3588 41.396 11.6488 42.0968 11.8421C42.247 11.8905 42.3471 11.8905 42.4973 11.8905C42.9978 11.8905 43.4483 11.6005 43.5985 11.1171C43.7987 10.5371 43.4984 9.8604 42.8477 9.66706C40.7453 8.99037 40.3949 7.2503 40.3949 7.20196C40.3949 7.15363 40.3949 7.10529 40.3449 7.00862C39.3438 3.62516 35.5896 2.32011 34.2881 1.93342C33.7375 1.01505 32.6363 0.14502 30.6341 0.14502C28.2314 0.14502 27.0801 1.3534 26.1791 2.32011C25.3782 3.19014 24.8276 3.77016 23.4761 3.77016C22.8254 3.77016 22.3249 4.25352 22.3249 4.88187C22.3249 5.51023 22.8254 5.99358 23.4761 5.99358C24.227 5.99358 24.8777 5.84858 25.4283 5.65524C24.6274 6.38027 23.5762 6.81528 22.3749 6.81528C21.7242 6.81528 21.2236 7.29864 21.2236 7.92699C21.2236 8.55535 21.7242 9.18371 22.3749 9.18371ZM38.1925 11.5521C37.3916 14.0172 35.039 15.8056 32.2359 15.8056C30.6841 15.8056 29.2325 15.2256 28.1313 14.3556C27.6308 13.9206 27.1802 13.4372 26.8299 12.9055C26.7297 12.7122 26.6296 12.5188 26.5295 12.3255C26.2792 11.8421 26.1291 11.3105 26.029 10.7788C26.029 10.6338 25.9789 10.5371 25.9789 10.3921C25.9789 10.1988 25.9289 10.0054 25.9289 9.76373C25.9289 9.57039 25.9289 9.32872 25.9789 9.13537C26.1791 9.13537 26.4294 9.13537 26.6296 9.08704C27.1302 9.0387 27.5807 8.94203 27.9811 8.84536C28.3816 8.74869 28.782 8.60369 29.1324 8.41035C30.7843 7.58865 31.5851 6.18692 31.9856 4.93021C32.1858 5.84858 32.6864 6.91195 33.7375 7.39531C34.3883 7.68532 34.8388 8.16867 35.039 8.84536C35.3894 9.90874 36.1903 11.3588 38.1925 11.5521Z" stroke="#440659" stroke-width="0.75" stroke-miterlimit="10"/>
<path d="M8.75982 2.75513C8.96004 2.75513 9.16026 2.61012 9.16026 2.36845V1.25674C9.16026 1.0634 9.0101 0.870056 8.75982 0.870056C8.50954 0.870056 8.35938 1.01506 8.35938 1.25674V2.41678C8.35938 2.61012 8.50954 2.75513 8.75982 2.75513Z" stroke="#440659" stroke-width="0.75" stroke-miterlimit="10"/>
<path d="M11.3625 3.33514C11.4126 3.33514 11.4627 3.38347 11.5127 3.38347C11.6629 3.38347 11.813 3.2868 11.8631 3.1418L12.3136 2.07842C12.4137 1.88508 12.3136 1.64341 12.1134 1.59507C11.9132 1.54674 11.6629 1.59507 11.6128 1.78841L11.1623 2.85179C11.0622 3.04513 11.1623 3.23847 11.3625 3.33514Z" stroke="#440659" stroke-width="0.75" stroke-miterlimit="10"/>
<path d="M13.5651 4.59186C13.6652 4.59186 13.8154 4.54353 13.8654 4.44686L14.6162 3.57682C14.7664 3.43182 14.7164 3.19014 14.5662 3.04513C14.366 2.90013 14.1157 2.94846 14.0156 3.09347L13.2647 3.9635C13.1146 4.10851 13.1646 4.35019 13.3148 4.49519C13.3649 4.59186 13.465 4.59186 13.5651 4.59186Z" stroke="#440659" stroke-width="0.75" stroke-miterlimit="10"/>
<path d="M5.50613 3.14178C5.55619 3.28679 5.70635 3.38346 5.85652 3.38346C5.90658 3.38346 5.95663 3.38346 6.00669 3.33512C6.20691 3.23845 6.30702 3.04511 6.20691 2.85177L5.75641 1.78839C5.6563 1.59505 5.45608 1.49838 5.25585 1.59505C5.05563 1.69172 4.95552 1.88506 5.05563 2.07841L5.50613 3.14178Z" stroke="#440659" stroke-width="0.75" stroke-miterlimit="10"/>
<path d="M3.50396 4.44686C3.60407 4.54353 3.70418 4.59186 3.80429 4.59186C3.9044 4.59186 3.95446 4.54353 4.05457 4.49519C4.20473 4.35019 4.25479 4.10851 4.10462 3.9635L3.35379 3.09347C3.25368 2.94846 3.0034 2.90013 2.80318 3.04513C2.65301 3.19014 2.65301 3.43182 2.75312 3.57682L3.50396 4.44686Z" stroke="#440659" stroke-width="0.75" stroke-miterlimit="10"/>
<path d="M2.80317 12.5672L4.15467 15.419C4.455 16.0957 4.70528 16.7724 4.85545 17.4491L5.15578 18.7541C5.25589 19.2375 5.70639 19.5758 6.20695 19.5758H11.1625C11.663 19.5758 12.1135 19.2375 12.2136 18.7541L12.514 17.4491C12.6641 16.724 12.9144 16.0473 13.2147 15.419L14.5162 12.5672V12.5189C14.8666 11.7455 15.0167 10.9238 15.0167 10.1021C15.0167 8.41036 14.316 6.8153 13.0646 5.65525C11.8132 4.49521 10.1113 3.86685 8.35934 3.96352C5.15578 4.10853 2.55289 6.52529 2.30261 9.61874C2.2025 10.6338 2.40272 11.6005 2.80317 12.5189V12.5672ZM8.00895 18.8024L5.95667 9.95709L7.70862 10.9238C8.00895 11.0688 8.30929 11.1655 8.65967 11.1655C9.01006 11.1655 9.3104 11.0688 9.61073 10.9238L11.4127 9.95709L9.36045 18.8024H8.00895ZM3.1035 9.66708C3.30372 7.00864 5.65634 4.83356 8.4094 4.68855C9.96112 4.64021 11.4127 5.12357 12.564 6.18694C13.6652 7.20198 14.316 8.6037 14.316 10.1021C14.316 10.8271 14.1658 11.5522 13.8655 12.2288V12.2772L12.514 15.0806C12.1636 15.8057 11.9133 16.5307 11.7631 17.304L11.4628 18.6091C11.4127 18.7541 11.3126 18.8024 11.1625 18.8024H10.1613L12.3638 9.2804V9.23206C12.3638 9.18373 12.3638 9.18373 12.3638 9.13539C12.3638 9.08706 12.3638 9.08706 12.3137 9.03872V8.99039C12.3137 8.94205 12.2637 8.94205 12.2637 8.94205L12.2136 8.89371C12.2136 8.89371 12.1636 8.89371 12.1636 8.84538C12.1135 8.84538 12.1135 8.79705 12.0635 8.79705H12.0134C11.9633 8.79705 11.9633 8.79705 11.9133 8.79705C11.8632 8.79705 11.8632 8.79705 11.8632 8.79705H11.8132L9.26034 10.1988C8.90995 10.3921 8.50951 10.3921 8.15912 10.1988L5.60628 8.79705H5.55623H5.50617C5.45612 8.79705 5.45612 8.79705 5.40606 8.79705H5.356C5.30595 8.79705 5.30595 8.79704 5.25589 8.84538C5.25589 8.84538 5.20584 8.84538 5.20584 8.89371L5.15578 8.94205L5.10573 8.99039V9.03872C5.10573 9.08706 5.10573 9.08706 5.05567 9.13539C5.05567 9.18373 5.05567 9.18373 5.05567 9.23206V9.2804L7.25812 18.8024H6.25701C6.10684 18.8024 6.00673 18.7058 5.95667 18.6091L5.65634 17.304C5.50617 16.5307 5.25589 15.8057 4.9055 15.0806L3.554 12.2772C3.554 12.2772 3.554 12.2772 3.554 12.2288C3.15356 11.4071 3.00339 10.5371 3.1035 9.66708Z" stroke="#440659" stroke-width="0.75" stroke-miterlimit="10"/>
<path d="M6.00662 20.3491C5.90651 20.3491 5.75634 20.3975 5.70629 20.4941C5.65623 20.5908 5.60618 20.6875 5.65623 20.8325L6.20684 22.9109C6.35701 23.3942 6.80751 23.7326 7.30807 23.7326H10.0611C10.5617 23.7326 11.0622 23.3942 11.1623 22.9109L11.713 20.8325C11.763 20.7358 11.713 20.5908 11.6629 20.4941C11.6128 20.3975 11.4627 20.3491 11.3626 20.3491H6.00662ZM10.4115 22.7175C10.3615 22.8626 10.2113 22.9592 10.0611 22.9592H7.30807C7.1579 22.9592 7.00773 22.8626 6.95768 22.7175L6.50718 21.0741H10.862L10.4115 22.7175Z" stroke="#440659" stroke-width="0.75" stroke-miterlimit="10"/>
<path d="M36.2903 36.2031C37.2413 36.2031 38.1423 35.8164 38.793 35.1881L42.5472 31.5146C42.5973 31.4663 42.5973 31.4663 42.5973 31.4179C43.9988 30.0162 44.7497 28.1795 44.7497 26.2461C44.7497 24.0226 43.7485 21.9442 41.9966 20.5425L40.7953 19.5758C39.7441 18.6574 38.3425 18.1257 36.7908 18.1257L34.0378 20.7842C33.7374 21.0742 33.387 21.2192 32.9866 21.3159V31.4663L34.0378 31.3696C34.4883 31.3213 34.8386 31.0796 34.9888 30.6446L36.6907 26.5844C36.7908 26.3911 36.991 26.2944 37.1913 26.3911C37.1913 26.3911 37.1913 26.3911 37.2413 26.3911C37.4415 26.4877 37.4916 26.6811 37.4415 26.8744L35.7396 30.9346C35.4894 31.5629 34.8386 32.0463 34.1379 32.0946L32.9866 32.1913L32.1857 32.288L27.4805 32.7713V36.2031H32.1857H32.9866H36.2903V36.2031Z" stroke="#440659" stroke-width="0.75" stroke-miterlimit="10"/>
</svg>
