<svg width="45" height="43" viewBox="0 0 45 43" fill="none" xmlns="http://www.w3.org/2000/svg">
<path d="M3.72103 17.775C3.72103 17.775 6.49943 20.5203 6.49943 24.1497C6.49943 27.2208 6.25135 34.6658 6.15213 36.9924H10.022L10.5678 31.967C10.5678 31.7809 10.7662 31.5948 11.0143 31.5948C11.2624 31.5948 11.4608 31.7809 11.4608 31.967L11.6593 36.9924H15.3307C15.3307 34.2005 15.1323 28.5237 14.9834 24.8942C14.9834 24.4289 15.0827 23.9171 15.2811 23.4983C15.9757 22.1024 15.8765 20.6599 15.678 19.6827C15.5292 18.9848 15.678 18.2403 16.0749 17.6354L16.6703 16.7047C18.7045 14.2851 19.1014 10.9814 19.1014 9.16668C19.1014 8.42218 18.506 7.8638 17.7122 7.8638C16.968 7.8638 16.3726 8.42218 16.323 9.12015C16.2238 11.5863 15.3307 16.8443 9.67473 16.8443C4.01872 16.8443 3.12567 11.6328 3.02644 9.16668C2.97682 8.46871 2.38145 7.91033 1.63724 7.91033C0.843416 7.91033 0.248047 8.51524 0.248047 9.21321C0.297661 11.3071 0.793802 15.4019 3.72103 17.775Z" stroke="#440659" stroke-miterlimit="10"/>
<path d="M6.25135 10.423C5.90405 10.9814 5.70559 11.5863 5.70559 12.2843C5.70559 14.2851 7.44208 15.9137 9.57549 15.9137C11.7089 15.9137 13.4454 14.2851 13.4454 12.2843C13.4454 10.2834 11.7089 8.65481 9.57549 8.65481C9.17858 8.65481 8.78167 8.70134 8.43437 8.84094C8.43437 7.95684 7.64054 7.21234 6.69787 7.21234C5.7552 7.21234 4.96138 7.95684 4.96138 8.84094C4.91176 9.63197 5.45752 10.2834 6.25135 10.423ZM9.57549 15.2157C8.23591 15.2157 7.09479 14.3782 6.64826 13.2614C9.32742 13.1683 10.2701 11.7259 10.5678 10.5626C11.0143 10.7953 11.6097 10.9814 12.3539 11.0279C12.5523 11.4002 12.6516 11.8189 12.6516 12.2843C12.6516 13.9128 11.2624 15.2157 9.57549 15.2157Z" stroke="#440659" stroke-miterlimit="10"/>
<path d="M23.5666 22.8934C24.2612 23.731 25.4023 24.2893 26.6427 24.2893C28.7761 24.2893 30.5126 22.6607 30.5126 20.6599C30.5126 18.6591 28.7761 17.0305 26.6427 17.0305C25.7 17.0305 24.807 17.3562 24.1124 17.9146L24.0628 17.9611L23.7155 18.2403L21.334 20.4738C21.0859 20.7064 21.0363 21.0321 21.2348 21.3579C21.5821 21.9628 22.3263 22.8934 23.5666 22.8934ZM26.5931 23.5914C25.7496 23.5914 25.0054 23.2656 24.4101 22.7538C25.5016 22.335 25.9977 21.2183 26.5435 20.4272C27.1885 19.4966 28.3296 19.0778 28.9746 18.8917C29.4211 19.4036 29.6692 20.0085 29.6692 20.7064C29.7188 22.2885 28.3296 23.5914 26.5931 23.5914Z" stroke="#440659" stroke-miterlimit="10"/>
<path d="M34.7298 18.9382C33.936 18.659 33.043 18.9848 32.6957 19.7293L31.6041 22.242C30.8103 24.1497 28.8258 25.4061 26.6427 25.4061H25.0055C23.6163 25.4061 22.3263 26.1041 21.6317 27.2208L17.216 34.3866C16.8191 34.9915 17.0672 35.7826 17.7122 36.1083C18.3076 36.434 19.0518 36.2479 19.4487 35.736L23.3682 30.7106L22.3263 36.9924H22.6736C26.2954 36.9924 29.6196 35.736 32.1499 33.5956C32.1995 30.8502 31.7034 29.2216 31.7034 29.2216L35.474 20.7995C35.9206 20.1015 35.5237 19.2174 34.7298 18.9382Z" stroke="#440659" stroke-miterlimit="10"/>
<path d="M44.7024 12.0051L42.1224 7.07275C42.0232 2.93147 38.6494 0.41878 38.5006 0.325717C38.3517 0.232655 38.1533 0.232655 38.0044 0.325717C37.8556 0.41878 34.6803 2.83841 34.3826 6.74703L31.6042 12.0051C31.3562 12.4704 31.7035 13.0753 32.2988 13.0753H34.333V13.8198C34.333 14.0059 34.4818 14.192 34.7299 14.192H36.5656L36.2183 15.0761C36.1191 15.3088 36.3176 15.588 36.5656 15.588H37.0618H37.4587H37.8556V23.5914C37.8556 28.0584 35.623 32.06 32.1996 34.6658C29.6197 36.6201 26.3451 37.7834 22.7233 37.7834H22.2768H15.2316H11.1632H9.92286H6.10257H1.43885C0.992318 37.7834 0.64502 38.1091 0.64502 38.5279V41.4128C0.64502 41.8316 0.992318 42.1573 1.43885 42.1573H1.48846L22.6737 41.0406C31.7531 40.5753 38.7983 33.456 38.6494 24.9408V23.4052V15.588H39.0463H39.4433H39.9394C40.1875 15.588 40.3859 15.3553 40.2867 15.0761L39.8898 14.099H41.7255C41.924 14.099 42.1224 13.9594 42.1224 13.7267V13.0288H44.0078C44.5535 13.0288 44.9504 12.4704 44.7024 12.0051ZM38.6494 13.401V10.5161C38.6494 10.3299 38.5006 10.1438 38.2525 10.1438C38.0044 10.1438 37.8556 10.2834 37.8556 10.5161V13.401H35.1268V9.39932V7.25888C35.1268 6.7005 35.2261 6.14213 35.3253 5.63028C35.8214 3.62944 37.0618 2.14044 37.8556 1.39594V3.90863C37.8556 4.09475 38.0044 4.28088 38.2525 4.28088C38.5006 4.28088 38.6494 4.14128 38.6494 3.90863V1.44247C39.344 2.09391 40.3859 3.35025 40.9813 4.97885C41.2294 5.67681 41.3782 6.42132 41.3782 7.25888V12.3773V13.401H38.6494Z" stroke="#440659" stroke-miterlimit="10"/>
<path d="M38.2523 5.39761C37.1608 5.39761 36.3174 6.18865 36.3174 7.21233C36.3174 8.23602 37.1608 9.02705 38.2523 9.02705C39.3438 9.02705 40.1873 8.23602 40.1873 7.21233C40.1873 6.18865 39.2942 5.39761 38.2523 5.39761ZM38.2523 8.32908C37.6074 8.32908 37.1112 7.81724 37.1112 7.25886C37.1112 6.70049 37.657 6.18865 38.2523 6.18865C38.8973 6.18865 39.3935 6.70049 39.3935 7.25886C39.3935 7.81724 38.8973 8.32908 38.2523 8.32908Z" stroke="#440659" stroke-miterlimit="10"/>
</svg>
