<svg width="44" height="42" viewBox="0 0 44 42" fill="none" xmlns="http://www.w3.org/2000/svg">
<path d="M4.48143 24.9436C4.88884 26.6654 5.9857 28.1307 7.39596 28.8634C7.48998 28.9 7.55266 28.9366 7.64667 28.9366C7.74069 28.9366 7.83471 28.9 7.89739 28.8634C9.30764 28.1307 10.4045 26.6654 10.8119 24.9436C11.2193 25.1267 11.6267 25.4198 11.9715 25.7862C12.2222 26.0792 12.6296 26.0426 12.8803 25.7495C13.131 25.4565 13.0997 24.9802 12.849 24.6871C12.1908 23.9545 11.376 23.4782 10.4985 23.2584C10.4985 23.2584 10.4985 23.2584 10.4672 23.2584H10.4358C10.3732 23.2584 10.3105 23.2218 10.2478 23.2218C10.2165 23.2218 10.2165 23.2218 10.1851 23.2218C10.1225 23.2218 10.0598 23.1852 9.9971 23.1852C9.96576 23.1852 9.96576 23.1852 9.93442 23.1852C9.87174 23.1852 9.80907 23.1852 9.74639 23.1852C9.71505 23.1852 9.71505 23.1852 9.68371 23.1852C9.58969 23.1852 9.52701 23.1852 9.433 23.1852H5.89169C5.60963 23.1852 5.35892 23.2218 5.10821 23.2584H5.07687C5.01419 23.2584 4.92018 23.2951 4.8575 23.2951C2.56975 23.8812 0.877441 26.2258 0.877441 29.0832V34.0653C0.877441 34.6881 1.31619 35.2376 1.88029 35.2376H10.4985C10.8433 35.2376 11.1566 34.9079 11.1566 34.4683C11.1566 34.0653 10.8746 33.699 10.4985 33.699H2.131V29.0099C2.131 27.1782 3.10251 25.603 4.48143 24.9436ZM9.433 24.6139C9.46434 24.6139 9.52701 24.6139 9.55835 24.6139C9.24496 25.7495 8.5555 26.7386 7.64667 27.3248C6.73784 26.7386 6.04838 25.7495 5.73499 24.6139C5.76633 24.6139 5.82901 24.6139 5.86035 24.6139H9.433Z" fill="#440659"/>
<path d="M4.29336 8.16545C5.26487 7.28625 6.42442 6.81001 7.64664 6.81001C8.96288 6.81001 10.2478 7.39615 11.2193 8.42188C11.3446 8.56842 11.5013 8.60505 11.658 8.60505C11.8461 8.60505 12.0028 8.53178 12.1281 8.34862C12.3788 8.05555 12.3475 7.57932 12.0654 7.28625C10.8432 6.00408 9.27627 5.30804 7.6153 5.30804C6.11103 5.30804 4.63809 5.89418 3.44721 6.99318C3.16516 7.24962 3.13382 7.72585 3.35319 8.05555C3.63524 8.38525 4.04265 8.42188 4.29336 8.16545Z" fill="#440659"/>
<path d="M7.64683 22.0495C8.52432 22.0495 9.33913 21.7931 10.0599 21.3535H12.191C12.5357 21.3535 12.8491 21.0238 12.8491 20.5842C12.8491 20.1812 12.5671 19.8149 12.191 19.8149H11.5955C12.3163 18.7892 12.7237 17.4704 12.7237 16.0783V14.9793C12.7237 14.5763 12.4417 14.21 12.0656 14.21H7.27076C6.92603 14.21 6.61264 14.1001 6.33059 13.8803C6.04853 13.6605 5.8605 13.3308 5.73514 12.9645C5.42175 12.012 4.63828 11.3526 3.76079 11.3526H3.19668C2.88329 11.3526 2.60124 11.6456 2.5699 12.012C2.53856 12.2318 2.53856 12.4149 2.53856 12.6347V16.0417C2.53856 17.4704 2.97731 18.7525 3.66677 19.7783H1.78643C2.09982 18.8624 2.28785 17.7268 2.28785 16.8476V13.0744C2.28785 12.0852 2.47589 11.1328 2.85195 10.2536C3.00865 9.88724 2.88329 9.41101 2.5699 9.22784C2.25651 9.04468 1.8491 9.19121 1.69241 9.55754C1.22232 10.6565 0.971612 11.8288 0.971612 13.0377V16.8842C0.971612 18.1664 0.470187 19.6684 0.156797 20.0347C0.000101721 20.2911 -0.0625763 20.6208 0.0627798 20.8773C0.156797 21.1703 0.407509 21.3535 0.658221 21.3535H5.26506C5.95452 21.7931 6.80067 22.0495 7.64683 22.0495ZM3.8548 12.9278C4.16819 12.9645 4.45024 13.1843 4.5756 13.5506C4.79497 14.21 5.1397 14.7595 5.64113 15.1625C6.14255 15.5654 6.70665 15.7852 7.3021 15.7852H11.5015V16.1149C11.5015 18.5694 9.77788 20.5842 7.67816 20.5842C5.57845 20.5842 3.8548 18.5694 3.8548 16.1149V12.9278Z" fill="#440659"/>
<path d="M39.5184 23.2585C39.5184 23.2218 39.4871 23.2218 39.5184 23.2585C39.4244 23.2218 39.3304 23.2218 39.2677 23.2218H39.2363C38.9856 23.1852 38.7036 23.1486 38.4529 23.1486H34.9116C34.8175 23.1486 34.7235 23.1486 34.6609 23.1486C34.6609 23.1486 34.6609 23.1486 34.6295 23.1486C33.376 23.2218 32.2164 23.8446 31.3389 24.8703C31.0882 25.1634 31.0882 25.6396 31.3389 25.9327C31.5896 26.2258 31.997 26.2258 32.2477 25.9327C32.6238 25.4931 33.0312 25.1634 33.5013 24.9436C33.9087 26.6654 35.0056 28.1307 36.4158 28.8634C36.5099 28.9 36.5725 28.9366 36.6665 28.9366C36.7606 28.9366 36.8546 28.9 36.9173 28.8634C38.3275 28.1307 39.393 26.6654 39.8318 24.9436C41.2107 25.603 42.1822 27.1782 42.1822 29.0099V33.6257H33.564C33.2193 33.6257 32.9059 33.9554 32.9059 34.395C32.9059 34.798 33.1879 35.1643 33.564 35.1643H42.4956C43.0284 35.1643 43.4985 34.6515 43.4985 33.992V29.0099C43.4985 26.1891 41.8061 23.808 39.5184 23.2585ZM36.6979 27.3248C35.7891 26.7386 35.0996 25.7495 34.7862 24.6139C34.8175 24.6139 34.8802 24.6139 34.9116 24.6139H38.4529C38.4842 24.6139 38.5469 24.6139 38.5782 24.6139C38.2962 25.7862 37.6067 26.7753 36.6979 27.3248Z" fill="#440659"/>
<path d="M36.698 22.0495C38.0142 22.0495 39.2051 21.4634 40.1139 20.5109C40.4586 20.6575 40.8034 20.7307 41.1481 20.7307C42.715 20.7307 43.9999 19.2287 43.9999 17.3971C43.9999 15.8218 43.0598 14.4664 41.7749 14.1367V12.6714C41.7749 11.7922 41.6182 10.9862 41.3048 10.2536C40.5213 8.38526 38.8917 7.10309 37.0113 7.10309H36.3532C33.7207 7.10309 31.5583 9.59416 31.5583 12.708V14.0268V16.1149C31.5897 19.3753 33.8774 22.0495 36.698 22.0495ZM42.715 17.3971C42.715 18.4228 41.9942 19.2287 41.1481 19.2287C41.1168 19.2287 41.0541 19.2287 41.0227 19.2287C41.4928 18.3129 41.7749 17.2505 41.8062 16.1149C41.8062 16.1149 41.8062 16.1149 41.8062 16.0783V15.7119C42.339 16.0416 42.715 16.6644 42.715 17.3971ZM36.3532 8.60506H37.0113C38.4529 8.60506 39.7065 9.63079 40.2393 11.0961C40.4273 11.5724 40.5213 12.1219 40.5213 12.6714V14.7961V15.2357C35.4444 14.4664 34.9116 11.3892 34.8803 11.2793C34.8489 10.913 34.5669 10.6199 34.2535 10.6199H34.2222C33.8774 10.6565 33.6267 10.9862 33.6267 11.3892V13.2209H32.9059V12.6714C32.8746 10.4367 34.4415 8.60506 36.3532 8.60506ZM32.8746 14.7595H34.2222C34.5669 14.7595 34.8176 14.4664 34.8489 14.1001C35.8205 15.1991 37.5128 16.3713 40.4273 16.7743C40.1452 18.899 38.547 20.5476 36.6666 20.5476C34.5669 20.5476 32.8433 18.5327 32.8433 16.0783L32.8746 14.7595Z" fill="#440659"/>
<path d="M30.6809 13.1843C30.8376 12.4516 30.9003 11.6823 30.9003 10.913C30.9003 9.41101 30.6182 7.94568 30.0855 6.59024C29.9288 6.22391 29.5527 6.04074 29.2393 6.22391C28.9259 6.40707 28.7692 6.84667 28.9259 7.21301C29.396 8.38528 29.6154 9.63081 29.6154 10.913C29.6154 11.5724 29.5527 12.2318 29.4273 12.8546C28.2678 19.4852 27.9857 21.3535 28.9259 26.0792C28.5185 25.7129 28.0484 25.3832 27.5783 25.0901C27.5783 25.0901 27.547 25.0901 27.547 25.0535C27.4843 25.0168 27.4216 24.9802 27.3276 24.9436H27.2963C26.8575 24.7238 26.4501 24.5772 25.98 24.4673C25.8547 24.4307 25.7607 24.4307 25.6353 24.3941C25.51 24.3574 25.4159 24.3574 25.2906 24.3574C25.1652 24.3574 25.0712 24.3208 24.9459 24.3208C24.8205 24.3208 24.6951 24.3208 24.6011 24.3208H24.5698H19.4615H19.4302C19.3048 24.3208 19.1795 24.3208 19.0855 24.3208C18.9601 24.3208 18.8661 24.3208 18.7407 24.3574C18.6154 24.3574 18.5214 24.3941 18.396 24.3941C17.8319 24.504 17.2678 24.6871 16.735 24.9436H16.7037C16.641 24.9802 16.5783 25.0168 16.4843 25.0535C16.4843 25.0535 16.453 25.0535 16.453 25.0901C15.9829 25.3465 15.5128 25.6762 15.1054 26.0792C16.0456 21.3535 15.7635 19.4852 14.604 12.8546C14.4786 12.2318 14.4159 11.5724 14.4159 10.913C14.4159 6.00411 17.8006 2.01106 22 2.01106C24.0997 2.01106 26.1367 3.0368 27.5783 4.83184C27.8291 5.1249 28.2365 5.16154 28.4872 4.86847C28.7379 4.5754 28.7692 4.09917 28.5185 3.8061C26.8262 1.718 24.4758 0.509094 22 0.509094C17.1111 0.509094 13.0997 5.16154 13.0997 10.913C13.0997 11.6823 13.1624 12.4516 13.3191 13.1843C14.6353 20.6208 14.792 21.6099 13.1624 28.7901C12.661 29.9257 12.3789 31.2079 12.3789 32.6V39.4138C12.3789 40.3662 13.0684 41.1722 13.8832 41.1722H30.1481C30.963 41.1722 31.6524 40.3662 31.6524 39.4138V32.5633C31.6524 31.2079 31.3704 29.8891 30.8689 28.7535C29.208 21.6099 29.3647 20.6208 30.6809 13.1843ZM17.6439 26.1525H17.6752H17.7065C17.7692 26.1158 17.8632 26.1158 17.9259 26.0792H17.9573C18.0513 26.0426 18.1139 26.0426 18.208 26.0059C18.396 25.9693 18.584 25.9327 18.7407 25.896C18.7721 25.896 18.7721 25.896 18.8034 25.896C18.8034 25.896 18.8034 25.896 18.8347 25.896C19.0228 26.8851 19.5242 27.7644 20.2763 28.2772L19.8376 31.0247L17.6439 26.1525ZM20.9031 33.0762L21.6866 27.9475C21.7493 27.5812 21.5612 27.2515 21.2792 27.1049C20.7778 26.8485 20.3704 26.3723 20.1823 25.7861H23.755C23.5669 26.3723 23.1909 26.8485 22.6581 27.1049C22.4074 27.2515 22.2507 27.6178 22.3134 27.9841L23.0969 33.1128L22 35.4574L20.9031 33.0762ZM24.0997 30.9881L23.661 28.2406C24.4131 27.6911 24.9459 26.8485 25.1026 25.8594C25.1026 25.8594 25.1026 25.8594 25.1339 25.8594C25.1652 25.8594 25.1652 25.8594 25.1966 25.8594C25.3846 25.896 25.5726 25.9327 25.7293 25.9693C25.8234 26.0059 25.886 26.0059 25.98 26.0426H26.0114C26.0741 26.0792 26.1681 26.0792 26.2308 26.1158H26.2621C26.2621 26.1158 26.2934 26.1158 26.2934 26.1525L24.0997 30.9881ZM30.3362 39.3771C30.3362 39.5237 30.2422 39.6336 30.1168 39.6336H13.8832C13.7578 39.6336 13.6638 39.5237 13.6638 39.3771V32.5633C13.6638 30.1089 14.792 27.9475 16.4843 26.7752L21.4359 37.3623C21.5612 37.6187 21.7806 37.7653 22 37.7653C22.2507 37.7653 22.4387 37.6187 22.5641 37.3623L27.5157 26.7752C29.208 27.9475 30.3362 30.1089 30.3362 32.5633V39.3771Z" fill="#440659"/>
<path d="M28.1738 15.1625C25.698 14.4298 23.4103 13.0377 21.5613 11.1694C19.9943 9.59421 18.7408 7.68927 18.02 5.78433C17.9259 5.56453 17.7379 5.38136 17.5499 5.34473C17.3305 5.3081 17.1111 5.38136 16.9544 5.56453C15.8889 6.91997 15.2935 8.67837 15.2935 10.51V15.0892C15.2935 19.412 18.302 22.8921 21.9687 22.8921C25.3846 22.8921 28.2365 19.9248 28.6125 15.9684C28.6752 15.6021 28.4872 15.2358 28.1738 15.1625ZM22 21.3902C19.0228 21.3902 16.6097 18.5694 16.6097 15.0892V10.51C16.6097 9.44767 16.8604 8.42194 17.3305 7.5061C18.9288 10.913 22.2194 14.7229 27.2963 16.4447C26.7635 19.3021 24.5698 21.3902 22 21.3902Z" fill="#440659"/>
</svg>
